<?xml version="1.0" encoding="UTF-8" standalone="no"?>
<!-- Created with Inkscape (http://www.inkscape.org/) -->
<svg
   xmlns:dc="http://purl.org/dc/elements/1.1/"
   xmlns:cc="http://creativecommons.org/ns#"
   xmlns:rdf="http://www.w3.org/1999/02/22-rdf-syntax-ns#"
   xmlns:svg="http://www.w3.org/2000/svg"
   xmlns="http://www.w3.org/2000/svg"
   xmlns:sodipodi="http://sodipodi.sourceforge.net/DTD/sodipodi-0.dtd"
   xmlns:inkscape="http://www.inkscape.org/namespaces/inkscape"
   width="750"
   height="500"
   id="svg4490"
   sodipodi:version="0.32"
   inkscape:version="0.46"
   version="1.0"
   sodipodi:docname="Pic 2.svg"
   inkscape:output_extension="org.inkscape.output.svg.inkscape"
   style="display:inline">
  <defs
     id="defs4492">
    <marker
       inkscape:stockid="Arrow2Mend"
       orient="auto"
       refY="0"
       refX="0"
       id="Arrow2Mend"
       style="overflow:visible">
      <path
         id="path5073"
         style="font-size:12px;fill-rule:evenodd;stroke-width:0.625;stroke-linejoin:round"
         d="M 8.7185878,4.0337352 L -2.2072895,0.016013256 L 8.7185884,-4.0017078 C 6.97309,-1.6296469 6.9831476,1.6157441 8.7185878,4.0337352 z"
         transform="scale(-0.6,-0.6)" />
    </marker>
    <marker
       inkscape:stockid="Arrow2Mstart"
       orient="auto"
       refY="0"
       refX="0"
       id="Arrow2Mstart"
       style="overflow:visible">
      <path
         id="path5070"
         style="font-size:12px;fill-rule:evenodd;stroke-width:0.625;stroke-linejoin:round"
         d="M 8.7185878,4.0337352 L -2.2072895,0.016013256 L 8.7185884,-4.0017078 C 6.97309,-1.6296469 6.9831476,1.6157441 8.7185878,4.0337352 z"
         transform="scale(0.6,0.6)" />
    </marker>
    <inkscape:perspective
       sodipodi:type="inkscape:persp3d"
       inkscape:vp_x="0 : 526.18109 : 1"
       inkscape:vp_y="0 : 1000 : 0"
       inkscape:vp_z="744.09448 : 526.18109 : 1"
       inkscape:persp3d-origin="372.04724 : 350.78739 : 1"
       id="perspective4498" />
    <filter
       inkscape:collect="always"
       id="filter12737">
      <feGaussianBlur
         inkscape:collect="always"
         stdDeviation="1.7409572"
         id="feGaussianBlur12739" />
    </filter>
  </defs>
  <sodipodi:namedview
     id="base"
     pagecolor="#ffffff"
     bordercolor="#666666"
     borderopacity="1.0"
     gridtolerance="10000"
     guidetolerance="10"
     objecttolerance="10"
     inkscape:pageopacity="0.0"
     inkscape:pageshadow="2"
     inkscape:zoom="1"
     inkscape:cx="535.98855"
     inkscape:cy="240"
     inkscape:document-units="px"
     inkscape:current-layer="layer1"
     showgrid="false"
     showguides="true"
     inkscape:guide-bbox="true"
     inkscape:window-width="1272"
     inkscape:window-height="772"
     inkscape:window-x="1280"
     inkscape:window-y="25" />
  <metadata
     id="metadata4495">
    <rdf:RDF>
      <cc:Work
         rdf:about="">
        <dc:format>image/svg+xml</dc:format>
        <dc:type
           rdf:resource="http://purl.org/dc/dcmitype/StillImage" />
      </cc:Work>
    </rdf:RDF>
  </metadata>
  <g
     inkscape:label="Base"
     inkscape:groupmode="layer"
     id="layer1"
     style="display:inline">
    <path
       transform="translate(4,-35)"
       style="fill:#ffffff;fill-opacity:0.94117647;stroke:#000000;stroke-width:2;stroke-linecap:butt;stroke-miterlimit:4;stroke-opacity:1"
       d="M 139,235 C 139,254.32 123.32,270 104,270 C 84.68,270 69,254.32 69,235 C 69,215.68 84.68,200 104,200 C 123.32,200 139,215.68 139,235 z"
       id="path4502" />
    <path
       transform="translate(528,-35)"
       style="fill:#ffffff;fill-opacity:0.94117647;stroke:#000000;stroke-width:2;stroke-linecap:butt;stroke-miterlimit:4;stroke-opacity:1"
       d="M 139,235 C 139,254.32 123.32,270 104,270 C 84.68,270 69,254.32 69,235 C 69,215.68 84.68,200 104,200 C 123.32,200 139,215.68 139,235 z"
       id="path5013" />
    <path
       transform="translate(347,-35)"
       style="fill:#ffffff;fill-opacity:0.94117647;stroke:#000000;stroke-width:2;stroke-linecap:butt;stroke-miterlimit:4;stroke-opacity:1"
       d="M 139,235 C 139,254.32 123.32,270 104,270 C 84.68,270 69,254.32 69,235 C 69,215.68 84.68,200 104,200 C 123.32,200 139,215.68 139,235 z"
       id="path5015" />
    <path
       transform="translate(193,-147)"
       style="fill:#ffffff;fill-opacity:0.94117647;stroke:#000000;stroke-width:2;stroke-linecap:butt;stroke-miterlimit:4;stroke-opacity:1"
       d="M 139,235 C 139,254.32 123.32,270 104,270 C 84.68,270 69,254.32 69,235 C 69,215.68 84.68,200 104,200 C 123.32,200 139,215.68 139,235 z"
       id="path5017" />
    <path
       transform="translate(214,96)"
       style="fill:#ffffff;fill-opacity:0.94117647;stroke:#000000;stroke-width:2;stroke-linecap:butt;stroke-miterlimit:4;stroke-opacity:1"
       d="M 139,235 C 139,254.32 123.32,270 104,270 C 84.68,270 69,254.32 69,235 C 69,215.68 84.68,200 104,200 C 123.32,200 139,215.68 139,235 z"
       id="path5019" />
    <g
       id="g3481">
      <path
         style="fill:#000000;fill-opacity:1;stroke:none;stroke-width:2;stroke-linecap:butt;stroke-miterlimit:4;stroke-dasharray:none;stroke-opacity:1"
         d="M 260.53125,87.125 C 260.53125,87.125 260.53125,87.125 119.53125,165.125 L 120.46875,166.875 C 190.96875,127.875 226.21875,108.375 243.84375,98.625 C 252.65625,93.75 257.07812,91.3125 259.28125,90.09375 C 260.38281,89.484375 260.94336,89.183594 261.21875,89.03125 C 261.35645,88.955078 261.40308,88.925293 261.4375,88.90625 C 261.45471,88.896729 261.46445,88.87738 261.46875,88.875 L 260.53125,87.125 z"
         id="path5041" />
      <path
         d="M 131.49796,165.17119 L 117.69156,167.29897 L 126.83039,156.73364 C 126.37541,160.23832 128.27113,163.64027 131.49796,165.17119 z"
         style="font-size:12px;fill-rule:evenodd;stroke-width:0.625;stroke-linejoin:round"
         id="path3487" />
      <path
         d="M 249.50204,88.828811 L 263.30844,86.701029 L 254.16961,97.266355 C 254.62459,93.76168 252.72887,90.359729 249.50204,88.828811 z"
         style="font-size:12px;fill-rule:evenodd;stroke-width:0.625;stroke-linejoin:round"
         id="path3489" />
    </g>
    <g
       id="g3421">
      <path
         style="fill:#000000;fill-opacity:1;stroke:none;stroke-width:2;stroke-linecap:butt;stroke-miterlimit:4;stroke-dasharray:none;stroke-opacity:1"
         d="M 119.5,232.125 L 118.5,233.875 C 201,281.875 242.25,305.875 262.875,317.875 C 273.1875,323.875 278.32812,326.875 280.90625,328.375 C 282.19531,329.125 282.86523,329.5 283.1875,329.6875 C 283.34863,329.78125 283.42847,329.82031 283.46875,329.84375 C 283.48889,329.85547 283.49496,329.87207 283.5,329.875 L 284.5,328.125 C 284.5,328.125 284.5,328.125 119.5,232.125 z"
         id="path6344" />
      <path
         d="M 125.60883,242.44529 L 116.7009,231.68457 L 130.458,234.11078 C 127.21606,235.51777 125.26799,238.89001 125.60883,242.44529 z"
         style="font-size:12px;fill-rule:evenodd;stroke-width:0.625;stroke-linejoin:round"
         id="path3427" />
      <path
         d="M 277.39117,319.55471 L 286.2991,330.31543 L 272.542,327.88922 C 275.78394,326.48223 277.73201,323.10999 277.39117,319.55471 z"
         style="font-size:12px;fill-rule:evenodd;stroke-width:0.625;stroke-linejoin:round"
         id="path3429" />
    </g>
    <g
       id="g3441">
      <path
         style="fill:#000000;fill-opacity:1;stroke:none;stroke-width:2;stroke-linecap:butt;stroke-miterlimit:4;stroke-dasharray:none;stroke-opacity:1"
         d="M 641.65625,233.0625 C 641.65625,233.0625 641.65625,233.0625 351.65625,335.0625 L 352.34375,336.9375 C 497.34375,285.9375 569.84375,260.4375 606.09375,247.6875 C 624.21875,241.3125 633.28125,238.125 637.8125,236.53125 C 640.07812,235.73438 641.18359,235.35547 641.75,235.15625 C 642.0332,235.05664 642.1792,234.99365 642.25,234.96875 C 642.2854,234.9563 642.30365,234.94061 642.3125,234.9375 C 642.31693,234.93594 642.34264,234.93789 642.34375,234.9375 L 641.65625,233.0625 z"
         id="path7388" />
      <path
         d="M 363.47568,337.09489 L 349.50768,336.89698 L 360.2763,327.9986 C 359.24482,331.37881 360.54839,335.04865 363.47568,337.09489 z"
         style="font-size:12px;fill-rule:evenodd;stroke-width:0.625;stroke-linejoin:round"
         id="path3447" />
      <path
         d="M 630.52432,232.90511 L 644.49232,233.10302 L 633.7237,242.0014 C 634.75518,238.62119 633.45161,234.95135 630.52432,232.90511 z"
         style="font-size:12px;fill-rule:evenodd;stroke-width:0.625;stroke-linejoin:round"
         id="path3449" />
    </g>
    <g
       id="g3431">
      <path
         style="fill:#000000;fill-opacity:1;stroke:none;stroke-width:2;stroke-linecap:butt;stroke-miterlimit:4;stroke-dasharray:none;stroke-opacity:1"
         d="M 453.3125,234.28125 C 403.3125,281.28125 378.3125,304.78125 365.8125,316.53125 C 359.5625,322.40625 356.4375,325.34375 354.875,326.8125 C 354.09375,327.54688 353.69531,327.91016 353.5,328.09375 C 353.40234,328.18555 353.36816,328.22705 353.34375,328.25 C 353.33154,328.26147 353.31555,328.27838 353.3125,328.28125 C 353.3125,328.28125 354,329 354,329 L 354.6875,329.71875 C 354.6875,329.71875 354.6875,329.71875 454.6875,235.71875 L 453.3125,234.28125 z"
         id="path8432" />
      <path
         d="M 443.06158,238.63883 L 455.91679,233.17185 L 449.66585,245.66464 C 449.24245,242.15601 446.5663,239.32666 443.06158,238.63883 z"
         style="font-size:12px;fill-rule:evenodd;stroke-width:0.625;stroke-linejoin:round"
         id="path3437" />
      <path
         d="M 364.93842,325.36117 L 352.08321,330.82815 L 358.33415,318.33536 C 358.75755,321.84399 361.4337,324.67334 364.93842,325.36117 z"
         style="font-size:12px;fill-rule:evenodd;stroke-width:0.625;stroke-linejoin:round"
         id="path3439" />
    </g>
    <g
       id="g3451">
      <path
         style="fill:#000000;fill-opacity:1;stroke:none;stroke-width:2;stroke-linecap:butt;stroke-miterlimit:4;stroke-dasharray:none;stroke-opacity:1"
         d="M 486,199 L 486,201 C 541.5,201 569.25,201 583.125,201 C 590.0625,201 593.51562,201 595.25,201 C 596.11719,201 596.56445,201 596.78125,201 C 596.88965,201 596.94165,201 596.96875,201 C 596.9823,201 596.99661,201 597,201 L 597,200 L 597,199 C 597,199 597,199 486,199 z"
         id="path9476" />
      <path
         d="M 496.46231,204.84048 L 483.35125,200.01922 L 496.46231,195.19795 C 494.36771,198.04442 494.37978,201.93889 496.46231,204.84048 z"
         style="font-size:12px;fill-rule:evenodd;stroke-width:0.625;stroke-linejoin:round"
         id="path3457" />
      <path
         d="M 586.53769,195.15952 L 599.64875,199.98078 L 586.53769,204.80205 C 588.63229,201.95558 588.62022,198.06111 586.53769,195.15952 z"
         style="font-size:12px;fill-rule:evenodd;stroke-width:0.625;stroke-linejoin:round"
         id="path3459" />
    </g>
    <g
       id="g3471">
      <path
         style="fill:#000000;fill-opacity:1;stroke:none;stroke-width:2;stroke-linecap:butt;stroke-miterlimit:4;stroke-dasharray:none;stroke-opacity:1"
         d="M 331.59375,77.1875 L 330.40625,78.8125 C 388.40625,121.3125 417.40625,142.5625 431.90625,153.1875 C 439.15625,158.5 442.78125,161.14062 444.59375,162.46875 C 445.5,163.13281 445.96094,163.45898 446.1875,163.625 C 446.30078,163.70801 446.34668,163.7605 446.375,163.78125 C 446.38916,163.79163 446.40271,163.80991 446.40625,163.8125 L 447.59375,162.1875 C 447.59375,162.1875 447.59375,162.1875 331.59375,77.1875 z"
         id="path10520" />
      <path
         d="M 336.57814,88.088332 L 328.85209,76.449926 L 342.27748,80.310415 C 338.90548,81.368417 336.61334,84.516931 336.57814,88.088332 z"
         style="font-size:12px;fill-rule:evenodd;stroke-width:0.625;stroke-linejoin:round"
         id="path3477" />
      <path
         d="M 441.42186,152.91167 L 449.14791,164.55007 L 435.72252,160.68958 C 439.09452,159.63158 441.38666,156.48307 441.42186,152.91167 z"
         style="font-size:12px;fill-rule:evenodd;stroke-width:0.625;stroke-linejoin:round"
         id="path3479" />
    </g>
    <g
       id="g3461">
      <path
         style="fill:#000000;fill-opacity:1;stroke:none;stroke-width:2;stroke-linecap:butt;stroke-miterlimit:4;stroke-dasharray:none;stroke-opacity:1"
         d="M 330.28125,74.03125 L 329.71875,75.96875 C 329.71875,75.96875 329.71875,75.96875 639.71875,164.96875 L 640.28125,163.03125 C 485.28125,118.53125 407.78125,96.28125 369.03125,85.15625 C 349.65625,79.59375 339.96875,76.828125 335.125,75.4375 C 332.70312,74.742188 331.48047,74.392578 330.875,74.21875 C 330.57227,74.131836 330.41943,74.084229 330.34375,74.0625 C 330.30591,74.051636 330.29071,74.033966 330.28125,74.03125 z"
         id="path11564" />
      <path
         d="M 631.27965,156.4604 L 642.5512,164.71245 L 628.6188,165.72853 C 631.41755,163.57058 632.48063,159.824 631.27965,156.4604 z"
         style="font-size:12px;fill-rule:evenodd;stroke-width:0.625;stroke-linejoin:round"
         id="path3467" />
      <path
         d="M 338.72035,82.539604 L 327.4488,74.287549 L 341.3812,73.271471 C 338.58245,75.429419 337.51937,79.176005 338.72035,82.539604 z"
         style="font-size:12px;fill-rule:evenodd;stroke-width:0.625;stroke-linejoin:round"
         id="path3469" />
    </g>
    <path
       style="font-size:28px;font-style:normal;font-weight:bold;text-align:center;text-anchor:middle;fill:#000000;fill-opacity:1;stroke:none;stroke-width:1px;stroke-linecap:butt;stroke-linejoin:miter;stroke-opacity:1;font-family:Bitstream Vera Sans;-inkscape-font-specification:Sans Bold"
       d="M 56.628906,153.19023 L 48.398438,153.19023 L 47.099609,156.90898 L 41.808594,156.90898 L 49.369141,136.49687 L 55.644531,136.49687 L 63.205078,156.90898 L 57.914062,156.90898 L 56.628906,153.19023 M 49.710938,149.40312 L 55.302734,149.40312 L 52.513672,141.28202 L 49.710938,149.40312"
       id="flowRoot12608" />
    <path
       style="font-size:28px;font-style:normal;font-weight:bold;text-align:center;text-anchor:middle;fill:#000000;fill-opacity:1;stroke:none;stroke-width:1px;stroke-linecap:butt;stroke-linejoin:miter;stroke-opacity:1;font-family:Bitstream Vera Sans;-inkscape-font-specification:Sans Bold"
       d="M 295.58203,18.399211 C 296.41145,18.399223 297.04035,18.216932 297.46875,17.852336 C 297.89712,17.487766 298.11131,16.950006 298.11133,16.239055 C 298.11131,15.537247 297.89712,15.004044 297.46875,14.639445 C 297.04035,14.265764 296.41145,14.078915 295.58203,14.078898 L 292.66992,14.078898 L 292.66992,18.399211 L 295.58203,18.399211 M 295.75977,27.326945 C 296.81705,27.326949 297.61001,27.103642 298.13867,26.657023 C 298.67642,26.210414 298.9453,25.535935 298.94531,24.633586 C 298.9453,23.749478 298.68098,23.088672 298.15234,22.651164 C 297.62369,22.204558 296.82616,21.981251 295.75977,21.981242 L 292.66992,21.981242 L 292.66992,27.326945 L 295.75977,27.326945 M 300.6543,19.985148 C 301.78449,20.313284 302.65949,20.919403 303.2793,21.803508 C 303.89907,22.687631 304.20897,23.772265 304.20898,25.057414 C 304.20897,27.026168 303.5436,28.493614 302.21289,29.459758 C 300.88215,30.425904 298.85871,30.908977 296.14258,30.908977 L 287.40625,30.908977 L 287.40625,10.496867 L 295.30859,10.496867 C 298.14322,10.496888 300.194,10.925273 301.46094,11.782023 C 302.73696,12.638812 303.37498,14.010556 303.375,15.897258 C 303.37498,16.890761 303.14256,17.738417 302.67773,18.440227 C 302.21287,19.132947 301.53839,19.64792 300.6543,19.985148"
       id="flowRoot12616" />
    <path
       style="font-size:28px;font-style:normal;font-weight:bold;text-align:center;text-anchor:middle;fill:#000000;fill-opacity:1;stroke:none;stroke-width:1px;stroke-linecap:butt;stroke-linejoin:miter;stroke-opacity:1;font-family:Bitstream Vera Sans;-inkscape-font-specification:Sans Bold"
       d="M 334.00391,405.78788 C 333.03774,406.28919 332.03058,406.66744 330.98242,406.92265 C 329.93423,407.17786 328.84048,407.30546 327.70117,407.30546 C 324.30142,407.30546 321.60807,406.35754 319.62109,404.46171 C 317.63411,402.55677 316.64062,399.97734 316.64062,396.72343 C 316.64062,393.46042 317.63411,390.881 319.62109,388.98515 C 321.60807,387.08022 324.30142,386.12775 327.70117,386.12773 C 328.84048,386.12775 329.93423,386.25535 330.98242,386.51054 C 332.03058,386.76577 333.03774,387.14402 334.00391,387.6453 L 334.00391,391.86991 C 333.02863,391.20457 332.06704,390.71694 331.11914,390.40702 C 330.17121,390.09714 329.17316,389.9422 328.125,389.94218 C 326.24738,389.9422 324.77082,390.54376 323.69531,391.74687 C 322.61978,392.95001 322.08202,394.60886 322.08203,396.72343 C 322.08202,398.82891 322.61978,400.4832 323.69531,401.68632 C 324.77082,402.88945 326.24738,403.49101 328.125,403.49101 C 329.17316,403.49101 330.17121,403.33606 331.11914,403.02616 C 332.06704,402.71627 333.02863,402.22864 334.00391,401.56327 L 334.00391,405.78788"
       id="flowRoot12624" />
    <path
       style="font-size:28px;font-style:normal;font-weight:bold;text-align:center;text-anchor:middle;fill:#000000;fill-opacity:1;stroke:none;stroke-width:1px;stroke-linecap:butt;stroke-linejoin:miter;stroke-opacity:1;font-family:Bitstream Vera Sans;-inkscape-font-specification:Sans Bold"
       d="M 384.71289,191.47538 L 384.71289,203.93046 L 386.59961,203.93046 C 388.75064,203.93046 390.39126,203.39726 391.52148,202.33085 C 392.66079,201.26445 393.23045,199.71497 393.23047,197.68241 C 393.23045,195.65899 392.66535,194.11863 391.53516,193.06132 C 390.40493,192.00404 388.75975,191.4754 386.59961,191.47538 L 384.71289,191.47538 M 379.44922,187.49687 L 385,187.49687 C 388.09895,187.49689 390.40493,187.72019 391.91797,188.16679 C 393.44009,188.60431 394.74347,189.3517 395.82812,190.40898 C 396.78514,191.32957 397.49607,192.39141 397.96094,193.59452 C 398.42576,194.79766 398.65818,196.16029 398.6582,197.68241 C 398.65818,199.22279 398.42576,200.59909 397.96094,201.81132 C 397.49607,203.01445 396.78514,204.0763 395.82812,204.99687 C 394.73436,206.05416 393.42186,206.80611 391.89062,207.25273 C 390.35936,207.69023 388.06249,207.90898 385,207.90898 L 379.44922,207.90898 L 379.44922,187.49687"
       id="flowRoot12632" />
    <path
       style="font-size:28px;font-style:normal;font-weight:bold;text-align:center;text-anchor:middle;fill:#000000;fill-opacity:1;stroke:none;stroke-width:1px;stroke-linecap:butt;stroke-linejoin:miter;stroke-opacity:1;font-family:Bitstream Vera Sans;-inkscape-font-specification:Sans Bold"
       d="M 702,185.49687 L 716.20508,185.49687 L 716.20508,189.47538 L 707.26367,189.47538 L 707.26367,193.27616 L 715.67188,193.27616 L 715.67188,197.25468 L 707.26367,197.25468 L 707.26367,201.93046 L 716.50586,201.93046 L 716.50586,205.90898 L 702,205.90898 L 702,185.49687"
       id="flowRoot12640" />
    <path
       style="font-size:24px;font-style:normal;font-weight:bold;text-align:center;text-anchor:middle;fill:#000000;fill-opacity:1;stroke:none;stroke-width:1px;stroke-linecap:butt;stroke-linejoin:miter;stroke-opacity:1;font-family:Bitstream Vera Sans;-inkscape-font-specification:Sans Bold"
       d="M 172.96875,109.80479 L 176.95312,109.80479 L 176.95312,98.496199 L 172.86328,99.339949 L 172.86328,96.269636 L 176.92969,95.425886 L 181.21875,95.425886 L 181.21875,109.80479 L 185.20312,109.80479 L 185.20312,112.92198 L 172.96875,112.92198 L 172.96875,109.80479"
       id="flowRoot12648" />
    <path
       style="font-size:24px;font-style:normal;font-weight:bold;text-align:center;text-anchor:middle;fill:#000000;fill-opacity:1;stroke:none;stroke-width:1px;stroke-linecap:butt;stroke-linejoin:miter;stroke-opacity:1;font-family:Bitstream Vera Sans;-inkscape-font-specification:Sans Bold"
       d="M 184.69922,297.42589 L 195.91406,297.42589 L 195.91406,300.74229 L 188.29688,300.74229 L 188.29688,303.44932 C 188.64062,303.35559 188.98437,303.28527 189.32812,303.23839 C 189.67968,303.18371 190.04296,303.15637 190.41797,303.15635 C 192.55077,303.15637 194.21093,303.69152 195.39844,304.76182 C 196.58592,305.82433 197.17967,307.30871 197.17969,309.21495 C 197.17967,311.10558 196.53124,312.58604 195.23438,313.65635 C 193.9453,314.72667 192.15233,315.26182 189.85547,315.26182 C 188.86327,315.26182 187.8789,315.16417 186.90234,314.96885 C 185.93359,314.78136 184.96875,314.49229 184.00781,314.10167 L 184.00781,310.55089 C 184.96093,311.09776 185.86328,311.50792 186.71484,311.78135 C 187.57421,312.0548 188.38281,312.19151 189.14062,312.19151 C 190.23437,312.19151 191.09374,311.92589 191.71875,311.39464 C 192.35155,310.85558 192.66796,310.12902 192.66797,309.21495 C 192.66796,308.29308 192.35155,307.56652 191.71875,307.03526 C 191.09374,306.50402 190.23437,306.23839 189.14062,306.23839 C 188.49218,306.23839 187.80078,306.32433 187.06641,306.4962 C 186.33203,306.66027 185.54297,306.91808 184.69922,307.26964 L 184.69922,297.42589"
       id="flowRoot12656" />
    <path
       transform="translate(12,-9)"
       style="font-size:24px;font-style:normal;font-weight:bold;text-align:center;text-anchor:middle;fill:#000000;fill-opacity:1;stroke:none;stroke-width:1px;stroke-linecap:butt;stroke-linejoin:miter;stroke-opacity:1;font-family:Bitstream Vera Sans;-inkscape-font-specification:Sans Bold"
       d="M 357.07031,295.60557 L 364.76953,295.60557 L 364.76953,298.92198 L 352.05469,298.92198 L 352.05469,295.60557 L 358.44141,289.96885 C 359.01171,289.45324 359.43358,288.94933 359.70703,288.45714 C 359.98046,287.96496 360.11718,287.45324 360.11719,286.92198 C 360.11718,286.10168 359.83983,285.44152 359.28516,284.94151 C 358.73827,284.44153 358.0078,284.19153 357.09375,284.19151 C 356.39062,284.19153 355.62109,284.34387 354.78516,284.64854 C 353.94921,284.94543 353.05468,285.39074 352.10156,285.98448 L 352.10156,282.14073 C 353.11718,281.80481 354.12109,281.5509 355.11328,281.37901 C 356.10546,281.19934 357.07812,281.1095 358.03125,281.10948 C 360.12499,281.1095 361.74999,281.57043 362.90625,282.49229 C 364.0703,283.41418 364.65233,284.69934 364.65234,286.34776 C 364.65233,287.3009 364.40624,288.19152 363.91406,289.01964 C 363.42186,289.83996 362.38671,290.94152 360.80859,292.32432 L 357.07031,295.60557"
       id="flowRoot12664" />
    <path
       transform="translate(3,-2)"
       style="font-size:24px;font-style:normal;font-weight:bold;text-align:center;text-anchor:middle;fill:#000000;fill-opacity:1;stroke:none;stroke-width:1px;stroke-linecap:butt;stroke-linejoin:miter;stroke-opacity:1;font-family:Bitstream Vera Sans;-inkscape-font-specification:Sans Bold"
       d="M 363.07031,135.60557 L 370.76953,135.60557 L 370.76953,138.92198 L 358.05469,138.92198 L 358.05469,135.60557 L 364.44141,129.96885 C 365.01171,129.45324 365.43358,128.94933 365.70703,128.45714 C 365.98046,127.96496 366.11718,127.45324 366.11719,126.92198 C 366.11718,126.10168 365.83983,125.44152 365.28516,124.94151 C 364.73827,124.44153 364.0078,124.19153 363.09375,124.19151 C 362.39062,124.19153 361.62109,124.34387 360.78516,124.64854 C 359.94921,124.94543 359.05468,125.39074 358.10156,125.98448 L 358.10156,122.14073 C 359.11718,121.80481 360.12109,121.5509 361.11328,121.37901 C 362.10546,121.19934 363.07812,121.1095 364.03125,121.10948 C 366.12499,121.1095 367.74999,121.57043 368.90625,122.49229 C 370.0703,123.41418 370.65233,124.69934 370.65234,126.34776 C 370.65233,127.3009 370.40624,128.19152 369.91406,129.01964 C 369.42186,129.83996 368.38671,130.94152 366.80859,132.32432 L 363.07031,135.60557"
       id="flowRoot12672" />
    <path
       transform="translate(3,-4)"
       style="font-size:24px;font-style:normal;font-weight:bold;text-align:center;text-anchor:middle;fill:#000000;fill-opacity:1;stroke:none;stroke-width:1px;stroke-linecap:butt;stroke-linejoin:miter;stroke-opacity:1;font-family:Bitstream Vera Sans;-inkscape-font-specification:Sans Bold"
       d="M 523.46875,189.80479 L 527.45312,189.80479 L 527.45312,178.4962 L 523.36328,179.33995 L 523.36328,176.26964 L 527.42969,175.42589 L 531.71875,175.42589 L 531.71875,189.80479 L 535.70312,189.80479 L 535.70312,192.92198 L 523.46875,192.92198 L 523.46875,189.80479"
       id="flowRoot12680" />
    <path
       transform="translate(-3,7)"
       style="font-size:24px;font-style:normal;font-weight:bold;text-align:center;text-anchor:middle;fill:#000000;fill-opacity:1;stroke:none;stroke-width:1px;stroke-linecap:butt;stroke-linejoin:miter;stroke-opacity:1;font-family:Bitstream Vera Sans;-inkscape-font-specification:Sans Bold"
       d="M 476.49219,72.14073 L 471.54688,79.464949 L 476.49219,79.464949 L 476.49219,72.14073 M 475.74219,68.425886 L 480.75781,68.425886 L 480.75781,79.464949 L 483.25391,79.464949 L 483.25391,82.73448 L 480.75781,82.73448 L 480.75781,85.92198 L 476.49219,85.92198 L 476.49219,82.73448 L 468.73438,82.73448 L 468.73438,78.867292 L 475.74219,68.425886"
       id="flowRoot12688" />
    <path
       transform="translate(0,-2)"
       style="font-size:24px;font-style:normal;font-weight:bold;text-align:center;text-anchor:middle;fill:#000000;fill-opacity:1;stroke:none;stroke-width:1px;stroke-linecap:butt;stroke-linejoin:miter;stroke-opacity:1;font-family:Bitstream Vera Sans;-inkscape-font-specification:Sans Bold"
       d="M 520.83594,315.48839 C 522.01561,315.79308 522.91014,316.32433 523.51953,317.08214 C 524.1367,317.83214 524.4453,318.78917 524.44531,319.95323 C 524.4453,321.68761 523.78124,323.00792 522.45312,323.91417 C 521.12499,324.8126 519.18749,325.26182 516.64062,325.26182 C 515.74218,325.26182 514.83984,325.1876 513.93359,325.03917 C 513.03515,324.89854 512.14453,324.6837 511.26172,324.39464 L 511.26172,320.91417 C 512.10547,321.33605 512.9414,321.65636 513.76953,321.8751 C 514.60546,322.08605 515.42578,322.19151 516.23047,322.19151 C 517.42577,322.19151 518.33984,321.98448 518.97266,321.57042 C 519.61327,321.15636 519.93358,320.56261 519.93359,319.78917 C 519.93358,318.9923 519.60546,318.39074 518.94922,317.98448 C 518.30077,317.57042 517.33984,317.36339 516.06641,317.36339 L 514.26172,317.36339 L 514.26172,314.45714 L 516.16016,314.45714 C 517.29296,314.45715 518.13671,314.28137 518.69141,313.92979 C 519.24608,313.57043 519.52343,313.02746 519.52344,312.30089 C 519.52343,311.62902 519.2539,311.10949 518.71484,310.74229 C 518.17577,310.37512 517.41405,310.19153 516.42969,310.19151 C 515.70312,310.19153 514.96874,310.27356 514.22656,310.4376 C 513.48437,310.60168 512.74609,310.84387 512.01172,311.16417 L 512.01172,307.85948 C 512.90234,307.6095 513.78515,307.422 514.66016,307.29698 C 515.53515,307.172 516.39452,307.1095 517.23828,307.10948 C 519.51171,307.1095 521.21093,307.4845 522.33594,308.23448 C 523.46874,308.97668 524.03514,310.09778 524.03516,311.59776 C 524.03514,312.62121 523.76561,313.46105 523.22656,314.11729 C 522.68749,314.76574 521.89061,315.22277 520.83594,315.48839"
       id="flowRoot12696" />
  </g>
  <g
     inkscape:groupmode="layer"
     id="layer4"
     inkscape:label="Pic 2"
     style="display:inline">
    <g
       style="display:inline"
       id="g12741"
       transform="translate(184,-225)">
      <path
         style="fill:#b4e2ff;fill-opacity:0.94117647;stroke:#000000;stroke-width:2;stroke-linecap:butt;stroke-miterlimit:4;stroke-dasharray:none;stroke-opacity:1;filter:url(#filter12737)"
         d="M 72.1875,237.1875 L 71.1875,238.1875 L 71.1875,250 L 8,250 L 8,270 L 71.1875,270 L 71.1875,281.4375 L 72.1875,282.4375 L 94.8125,259.8125 L 72.1875,237.1875 z"
         id="path12715" />
      <path
         id="rect12707"
         d="M 71.1875,234.1875 L 70.1875,235.1875 L 70.1875,247 L 7,247 L 7,267 L 70.1875,267 L 70.1875,278.4375 L 71.1875,279.4375 L 93.8125,256.8125 L 71.1875,234.1875 z"
         style="fill:#b4e2ff;fill-opacity:0.94117647;stroke:#000000;stroke-width:2;stroke-linecap:butt;stroke-miterlimit:4;stroke-dasharray:none;stroke-opacity:1" />
    </g>
    <path
       transform="translate(4,-35)"
       style="fill:#99ccff;fill-opacity:0.94117647;stroke:#000000;stroke-width:2;stroke-linecap:butt;stroke-miterlimit:4;stroke-opacity:1;display:inline"
       d="M 139,235 C 139,254.32 123.32,270 104,270 C 84.68,270 69,254.32 69,235 C 69,215.68 84.68,200 104,200 C 123.32,200 139,215.68 139,235 z"
       id="path12763" />
    <path
       transform="translate(193,-147)"
       style="fill:#b4e2ff;fill-opacity:0.94117647;stroke:#000000;stroke-width:2;stroke-linecap:butt;stroke-miterlimit:4;stroke-opacity:1;display:inline"
       d="M 139,235 C 139,254.32 123.32,270 104,270 C 84.68,270 69,254.32 69,235 C 69,215.68 84.68,200 104,200 C 123.32,200 139,215.68 139,235 z"
       id="path12766" />
    <path
       style="font-size:24px;font-style:normal;font-weight:bold;text-align:center;text-anchor:middle;fill:#000000;fill-opacity:1;stroke:none;stroke-width:1px;stroke-linecap:butt;stroke-linejoin:miter;stroke-opacity:1;font-family:Bitstream Vera Sans;-inkscape-font-specification:Sans Bold"
       d="M 325.40625,44.086042 L 321.92578,44.086042 C 320.73046,42.156354 319.84765,40.324324 319.27734,38.589949 C 318.70703,36.847765 318.42187,35.121204 318.42188,33.410261 C 318.42187,31.699333 318.70703,29.968866 319.27734,28.218855 C 319.85547,26.461057 320.73828,24.625121 321.92578,22.711042 L 325.40625,22.711042 C 324.40624,24.562621 323.65624,26.375119 323.15625,28.148542 C 322.65624,29.914178 322.40624,31.66027 322.40625,33.386824 C 322.40624,35.113392 322.65234,36.86339 323.14453,38.636824 C 323.64452,40.410262 324.39843,42.226666 325.40625,44.086042 M 330.14062,37.804792 L 334.125,37.804792 L 334.125,26.496199 L 330.03516,27.339949 L 330.03516,24.269636 L 334.10156,23.425886 L 338.39062,23.425886 L 338.39062,37.804792 L 342.375,37.804792 L 342.375,40.92198 L 330.14062,40.92198 L 330.14062,37.804792 M 346.46484,36.386824 L 350.68359,36.386824 L 350.68359,39.961042 L 347.78906,44.332136 L 345.29297,44.332136 L 346.46484,39.961042 L 346.46484,36.386824 M 365.92969,37.73448 L 358.875,37.73448 L 357.76172,40.92198 L 353.22656,40.92198 L 359.70703,23.425886 L 365.08594,23.425886 L 371.56641,40.92198 L 367.03125,40.92198 L 365.92969,37.73448 M 360,34.488386 L 364.79297,34.488386 L 362.40234,27.527449 L 360,34.488386 M 373.59375,44.086042 C 374.59375,42.226666 375.34375,40.410262 375.84375,38.636824 C 376.34375,36.86339 376.59375,35.113392 376.59375,33.386824 C 376.59375,31.66027 376.34375,29.914178 375.84375,28.148542 C 375.34375,26.375119 374.59375,24.562621 373.59375,22.711042 L 377.07422,22.711042 C 378.26171,24.625121 379.14062,26.461057 379.71094,28.218855 C 380.28905,29.968866 380.57812,31.699333 380.57812,33.410261 C 380.57812,35.121204 380.29296,36.847765 379.72266,38.589949 C 379.15234,40.324324 378.26952,42.156354 377.07422,44.086042 L 373.59375,44.086042"
       id="flowRoot12769" />
    <path
       style="font-size:24px;font-style:normal;font-weight:bold;text-align:center;text-anchor:middle;fill:#000000;fill-opacity:1;stroke:none;stroke-width:1px;stroke-linecap:butt;stroke-linejoin:miter;stroke-opacity:1;font-family:Bitstream Vera Sans;-inkscape-font-specification:Sans Bold"
       d="M 311.90625,440.08604 L 308.42578,440.08604 C 307.23046,438.15635 306.34765,436.32432 305.77734,434.58995 C 305.20703,432.84777 304.92187,431.1212 304.92188,429.41026 C 304.92187,427.69933 305.20703,425.96887 305.77734,424.21885 C 306.35547,422.46106 307.23828,420.62512 308.42578,418.71104 L 311.90625,418.71104 C 310.90624,420.56262 310.15624,422.37512 309.65625,424.14854 C 309.15624,425.91418 308.90624,427.66027 308.90625,429.38682 C 308.90624,431.11339 309.15234,432.86339 309.64453,434.63682 C 310.14452,436.41026 310.89843,438.22667 311.90625,440.08604 M 316.64062,433.80479 L 320.625,433.80479 L 320.625,422.4962 L 316.53516,423.33995 L 316.53516,420.26964 L 320.60156,419.42589 L 324.89062,419.42589 L 324.89062,433.80479 L 328.875,433.80479 L 328.875,436.92198 L 316.64062,436.92198 L 316.64062,433.80479 M 332.96484,432.38682 L 337.18359,432.38682 L 337.18359,435.96104 L 334.28906,440.33214 L 331.79297,440.33214 L 332.96484,435.96104 L 332.96484,432.38682 M 352.42969,433.73448 L 345.375,433.73448 L 344.26172,436.92198 L 339.72656,436.92198 L 346.20703,419.42589 L 351.58594,419.42589 L 358.06641,436.92198 L 353.53125,436.92198 L 352.42969,433.73448 M 346.5,430.48839 L 351.29297,430.48839 L 348.90234,423.52745 L 346.5,430.48839 M 360.09375,440.08604 C 361.09375,438.22667 361.84375,436.41026 362.34375,434.63682 C 362.84375,432.86339 363.09375,431.11339 363.09375,429.38682 C 363.09375,427.66027 362.84375,425.91418 362.34375,424.14854 C 361.84375,422.37512 361.09375,420.56262 360.09375,418.71104 L 363.57422,418.71104 C 364.76171,420.62512 365.64062,422.46106 366.21094,424.21885 C 366.78905,425.96887 367.07812,427.69933 367.07812,429.41026 C 367.07812,431.1212 366.79296,432.84777 366.22266,434.58995 C 365.65234,436.32432 364.76952,438.15635 363.57422,440.08604 L 360.09375,440.08604"
       id="flowRoot12777" />
    <path
       style="font-size:24px;font-style:normal;font-weight:bold;text-align:center;text-anchor:middle;fill:#000000;fill-opacity:1;stroke:none;stroke-width:1px;stroke-linecap:butt;stroke-linejoin:miter;stroke-opacity:1;font-family:Bitstream Vera Sans;-inkscape-font-specification:Sans Bold"
       d="M 369.03125,239.08604 L 365.55078,239.08604 C 364.35546,237.15635 363.47265,235.32432 362.90234,233.58995 C 362.33203,231.84777 362.04687,230.1212 362.04688,228.41026 C 362.04687,226.69933 362.33203,224.96887 362.90234,223.21885 C 363.48047,221.46106 364.36328,219.62512 365.55078,217.71104 L 369.03125,217.71104 C 368.03124,219.56262 367.28124,221.37512 366.78125,223.14854 C 366.28124,224.91418 366.03124,226.66027 366.03125,228.38682 C 366.03124,230.11339 366.27734,231.86339 366.76953,233.63682 C 367.26952,235.41026 368.02343,237.22667 369.03125,239.08604 M 382.15625,229.34776 C 382.49218,229.8712 382.89061,230.26574 383.35156,230.53135 C 383.81249,230.79698 384.32811,230.9298 384.89844,230.92979 C 385.60155,230.9298 386.17186,230.73449 386.60938,230.34385 C 387.05467,229.94542 387.27733,229.43761 387.27734,228.82042 C 387.27733,228.21886 387.0742,227.72277 386.66797,227.33214 C 386.26952,226.93371 385.77342,226.73449 385.17969,226.73448 C 384.61717,226.73449 384.10155,226.93371 383.63281,227.33214 C 383.17186,227.72277 382.67968,228.39464 382.15625,229.34776 M 379.76562,228.22276 C 379.42968,227.69933 379.03515,227.30871 378.58203,227.05089 C 378.1289,226.78527 377.60937,226.65246 377.02344,226.65245 C 376.32031,226.65246 375.74609,226.84777 375.30078,227.23839 C 374.86328,227.62902 374.64453,228.13293 374.64453,228.7501 C 374.64453,229.35167 374.84375,229.85167 375.24219,230.2501 C 375.64062,230.64074 376.14062,230.83605 376.74219,230.83604 C 377.29687,230.83605 377.81249,230.63292 378.28906,230.22667 C 378.76562,229.81261 379.2578,229.14464 379.76562,228.22276 M 380.98438,230.74229 C 380.45312,231.75792 379.87499,232.51183 379.25,233.00401 C 378.6328,233.4962 377.94531,233.74229 377.1875,233.74229 C 376.10156,233.74229 375.17187,233.26964 374.39844,232.32432 C 373.625,231.3712 373.23828,230.19542 373.23828,228.79698 C 373.23828,227.32824 373.57812,226.13683 374.25781,225.22276 C 374.94531,224.30871 375.83593,223.85168 376.92969,223.85167 C 377.63281,223.85168 378.28124,224.07434 378.875,224.51964 C 379.47655,224.95715 380.16405,225.73449 380.9375,226.85167 C 381.49218,225.82043 382.07811,225.05871 382.69531,224.56651 C 383.31249,224.07434 383.99217,223.82824 384.73438,223.82823 C 385.82811,223.82824 386.7578,224.3009 387.52344,225.2462 C 388.29686,226.19152 388.68358,227.3673 388.68359,228.77354 C 388.68358,230.25011 388.33983,231.44933 387.65234,232.3712 C 386.97264,233.28526 386.08592,233.74229 384.99219,233.74229 C 384.28124,233.74229 383.6328,233.52745 383.04688,233.09776 C 382.46093,232.66808 381.77343,231.88292 380.98438,230.74229 M 393.41797,231.38682 L 397.63672,231.38682 L 397.63672,234.96104 L 394.74219,239.33214 L 392.24609,239.33214 L 393.41797,234.96104 L 393.41797,231.38682 M 401.36328,227.3087 L 408.72266,227.3087 L 408.72266,230.71885 L 401.36328,230.71885 L 401.36328,227.3087 M 411.96875,239.08604 C 412.96875,237.22667 413.71875,235.41026 414.21875,233.63682 C 414.71875,231.86339 414.96875,230.11339 414.96875,228.38682 C 414.96875,226.66027 414.71875,224.91418 414.21875,223.14854 C 413.71875,221.37512 412.96875,219.56262 411.96875,217.71104 L 415.44922,217.71104 C 416.63671,219.62512 417.51562,221.46106 418.08594,223.21885 C 418.66405,224.96887 418.95312,226.69933 418.95312,228.41026 C 418.95312,230.1212 418.66796,231.84777 418.09766,233.58995 C 417.52734,235.32432 416.64452,237.15635 415.44922,239.08604 L 411.96875,239.08604"
       id="flowRoot12785" />
    <path
       style="font-size:24px;font-style:normal;font-weight:bold;text-align:center;text-anchor:middle;fill:#000000;fill-opacity:1;stroke:none;stroke-width:1px;stroke-linecap:butt;stroke-linejoin:miter;stroke-opacity:1;font-family:Bitstream Vera Sans;-inkscape-font-specification:Sans Bold"
       d="M 690.03125,246.08604 L 686.55078,246.08604 C 685.35546,244.15635 684.47265,242.32432 683.90234,240.58995 C 683.33203,238.84777 683.04687,237.1212 683.04688,235.41026 C 683.04687,233.69933 683.33203,231.96887 683.90234,230.21885 C 684.48047,228.46106 685.36328,226.62512 686.55078,224.71104 L 690.03125,224.71104 C 689.03124,226.56262 688.28124,228.37512 687.78125,230.14854 C 687.28124,231.91418 687.03124,233.66027 687.03125,235.38682 C 687.03124,237.11339 687.27734,238.86339 687.76953,240.63682 C 688.26952,242.41026 689.02343,244.22667 690.03125,246.08604 M 703.15625,236.34776 C 703.49218,236.8712 703.89061,237.26574 704.35156,237.53135 C 704.81249,237.79698 705.32811,237.9298 705.89844,237.92979 C 706.60155,237.9298 707.17186,237.73449 707.60938,237.34385 C 708.05467,236.94542 708.27733,236.43761 708.27734,235.82042 C 708.27733,235.21886 708.0742,234.72277 707.66797,234.33214 C 707.26952,233.93371 706.77342,233.73449 706.17969,233.73448 C 705.61717,233.73449 705.10155,233.93371 704.63281,234.33214 C 704.17186,234.72277 703.67968,235.39464 703.15625,236.34776 M 700.76562,235.22276 C 700.42968,234.69933 700.03515,234.30871 699.58203,234.05089 C 699.1289,233.78527 698.60937,233.65246 698.02344,233.65245 C 697.32031,233.65246 696.74609,233.84777 696.30078,234.23839 C 695.86328,234.62902 695.64453,235.13293 695.64453,235.7501 C 695.64453,236.35167 695.84375,236.85167 696.24219,237.2501 C 696.64062,237.64074 697.14062,237.83605 697.74219,237.83604 C 698.29687,237.83605 698.81249,237.63292 699.28906,237.22667 C 699.76562,236.81261 700.2578,236.14464 700.76562,235.22276 M 701.98438,237.74229 C 701.45312,238.75792 700.87499,239.51183 700.25,240.00401 C 699.6328,240.4962 698.94531,240.74229 698.1875,240.74229 C 697.10156,240.74229 696.17187,240.26964 695.39844,239.32432 C 694.625,238.3712 694.23828,237.19542 694.23828,235.79698 C 694.23828,234.32824 694.57812,233.13683 695.25781,232.22276 C 695.94531,231.30871 696.83593,230.85168 697.92969,230.85167 C 698.63281,230.85168 699.28124,231.07434 699.875,231.51964 C 700.47655,231.95715 701.16405,232.73449 701.9375,233.85167 C 702.49218,232.82043 703.07811,232.05871 703.69531,231.56651 C 704.31249,231.07434 704.99217,230.82824 705.73438,230.82823 C 706.82811,230.82824 707.7578,231.3009 708.52344,232.2462 C 709.29686,233.19152 709.68358,234.3673 709.68359,235.77354 C 709.68358,237.25011 709.33983,238.44933 708.65234,239.3712 C 707.97264,240.28526 707.08592,240.74229 705.99219,240.74229 C 705.28124,240.74229 704.6328,240.52745 704.04688,240.09776 C 703.46093,239.66808 702.77343,238.88292 701.98438,237.74229 M 714.41797,238.38682 L 718.63672,238.38682 L 718.63672,241.96104 L 715.74219,246.33214 L 713.24609,246.33214 L 714.41797,241.96104 L 714.41797,238.38682 M 722.36328,234.3087 L 729.72266,234.3087 L 729.72266,237.71885 L 722.36328,237.71885 L 722.36328,234.3087 M 732.96875,246.08604 C 733.96875,244.22667 734.71875,242.41026 735.21875,240.63682 C 735.71875,238.86339 735.96875,237.11339 735.96875,235.38682 C 735.96875,233.66027 735.71875,231.91418 735.21875,230.14854 C 734.71875,228.37512 733.96875,226.56262 732.96875,224.71104 L 736.44922,224.71104 C 737.63671,226.62512 738.51562,228.46106 739.08594,230.21885 C 739.66405,231.96887 739.95312,233.69933 739.95312,235.41026 C 739.95312,237.1212 739.66796,238.84777 739.09766,240.58995 C 738.52734,242.32432 737.64452,244.15635 736.44922,246.08604 L 732.96875,246.08604"
       id="flowRoot12793" />
  </g>
</svg>
